<?xml version="1.0" encoding="UTF-8" standalone="no"?>
<svg width="268.817mm" height="279.047mm"
 viewBox="-426.122 -400.709 761.838 790.917"
 xmlns="http://www.w3.org/2000/svg" xmlns:xlink="http://www.w3.org/1999/xlink" version="1.2" baseProfile="tiny">
<title>Qt SVG Document</title>
<desc>Generated with Qt</desc>
<defs>
</defs>
<g fill="none" stroke="black" stroke-width="1" fill-rule="evenodd" stroke-linecap="square" stroke-linejoin="bevel" >

<g fill="none" stroke="#000000" stroke-opacity="1" stroke-width="1" stroke-linecap="square" stroke-linejoin="bevel" transform="matrix(1,0,0,1,0,0)"
font-family="Segoe UI" font-size="9" font-weight="400" font-style="normal" 
>
</g>

<g fill="none" stroke="#000000" stroke-opacity="1" stroke-width="1" stroke-linecap="square" stroke-linejoin="bevel" transform="matrix(1,0,0,1,-236,-46)"
font-family="Segoe UI" font-size="9" font-weight="400" font-style="normal" 
>
</g>

<g fill="none" stroke="#55ff7f" stroke-opacity="1" stroke-width="1" stroke-linecap="round" stroke-linejoin="round" transform="matrix(1,0,0,1,-236,-46)"
font-family="Segoe UI" font-size="9" font-weight="400" font-style="normal" 
>
<path vector-effect="none" fill-rule="nonzero" d="M241.094,16.5086 C120.456,25.8228 27.6414,82.7117 27.6414,151.5 C27.6414,226.791 138.835,287.827 276,287.827 C413.165,287.827 524.359,226.791 524.359,151.5 C524.359,141.088 522.232,130.948 518.204,121.205 L469.168,121.205 L469.168,128.779 C469.168,132.962 462.99,136.353 455.37,136.353 L413.977,136.353 L413.977,140.789 L437.531,153.718 C442.919,156.676 442.919,161.471 437.531,164.429 L386.382,192.506 L386.382,219.664 C386.382,220.839 385.883,221.999 384.925,223.051 L357.33,253.346 L354.745,255.314 L327.15,270.462 C321.761,273.419 313.025,273.419 307.637,270.462 L280.041,255.314 C277.454,253.894 276,251.967 276,249.959 L276,207.653 L252.446,194.724 C249.858,193.304 248.405,191.377 248.405,189.369 L248.405,177.358 L226.434,165.298 L173.246,150.7 L169.66,149.282 L142.064,134.134 C136.676,131.176 136.676,126.381 142.064,123.423 L165.618,110.494 L165.618,98.4838 C165.618,94.301 171.796,90.9101 179.416,90.9101 L228.892,90.9101 L252.446,77.9809 C257.834,75.0232 266.57,75.0232 271.959,77.9809 L297.971,92.2593 L348.246,106.058 L366.869,106.058 L386.382,95.3467 L386.382,86.4735 L362.827,73.5443 C360.24,72.124 358.786,70.1976 358.786,68.1889 L358.786,60.6151 L331.191,60.6151 L331.191,68.1889 C331.191,72.3717 325.013,75.7626 317.393,75.7626 L289.798,75.7626 C286.138,75.7626 282.629,74.9647 280.041,73.5443 L256.487,60.6151 L234.607,60.6151 C222.314,60.6151 216.158,52.4572 224.85,47.686 L248.405,34.7568 L248.405,24.5344 L241.094,16.5086 M270.757,15.2025 L274.543,19.3594 C275.501,20.411 276,21.5707 276,22.7465 L276,37.8939 C276,39.9026 274.546,41.829 271.959,43.2494 L267.041,45.9487 C268.87,46.3247 270.551,46.9132 271.959,47.686 L295.513,60.6151 L303.595,60.6151 L303.595,53.0414 C303.595,48.8586 309.773,45.4677 317.393,45.4677 L372.584,45.4677 C380.204,45.4677 386.382,48.8586 386.382,53.0414 L386.382,65.0517 L409.936,77.9809 C412.523,79.4013 413.977,81.3277 413.977,83.3364 L413.977,98.4838 C413.977,100.493 412.523,102.419 409.936,103.839 L382.34,118.987 C379.753,120.407 376.243,121.205 372.584,121.205 L344.989,121.205 C342.846,121.205 340.734,120.931 338.818,120.405 L283.627,105.258 L280.041,103.839 L262.202,94.0472 L244.363,103.839 C241.776,105.26 238.266,106.058 234.607,106.058 L193.214,106.058 L193.214,113.631 C193.214,115.64 191.76,117.566 189.173,118.987 L171.334,128.779 L187.589,137.702 L240.777,152.3 L244.363,153.718 L271.959,168.866 C274.546,170.286 276,172.213 276,174.221 L276,186.232 L299.554,199.161 C302.142,200.581 303.595,202.507 303.595,204.516 L303.595,246.821 L317.393,254.395 L333.649,245.472 L358.786,217.876 L358.786,189.369 C358.786,187.36 360.24,185.434 362.827,184.013 L408.262,159.074 L390.423,149.282 C387.835,147.861 386.382,145.935 386.382,143.926 L386.382,128.779 C386.382,124.596 392.559,121.205 400.179,121.205 L441.572,121.205 L441.572,113.631 C441.572,109.448 447.75,106.058 455.37,106.058 L510.227,106.058 C476.132,53.1084 384.137,15.1727 276,15.1727 C274.248,15.1727 272.5,15.1827 270.757,15.2025 M276,302.975 C123.595,302.975 0.0459923,235.157 0.0459923,151.5 C0.0459923,67.8428 123.595,0.0252458 276,0.0252458 C428.405,0.0252458 551.954,67.8428 551.954,151.5 C551.954,235.157 428.405,302.975 276,302.975 "/>
</g>

<g fill="none" stroke="#000000" stroke-opacity="1" stroke-width="1" stroke-linecap="square" stroke-linejoin="bevel" transform="matrix(1,0,0,1,-236,-46)"
font-family="Segoe UI" font-size="9" font-weight="400" font-style="normal" 
>
</g>

<g fill="none" stroke="#000000" stroke-opacity="1" stroke-width="1" stroke-linecap="square" stroke-linejoin="bevel" transform="matrix(0.309017,0.951057,-0.951057,0.309017,-36.4835,-228.986)"
font-family="Segoe UI" font-size="9" font-weight="400" font-style="normal" 
>
</g>

<g fill="none" stroke="#55ff7f" stroke-opacity="1" stroke-width="1" stroke-linecap="round" stroke-linejoin="round" transform="matrix(0.309017,0.951057,-0.951057,0.309017,-36.4835,-228.986)"
font-family="Segoe UI" font-size="9" font-weight="400" font-style="normal" 
>
<path vector-effect="none" fill-rule="nonzero" d="M241.094,16.5086 C120.456,25.8228 27.6414,82.7117 27.6414,151.5 C27.6414,226.791 138.835,287.827 276,287.827 C413.165,287.827 524.359,226.791 524.359,151.5 C524.359,141.088 522.232,130.948 518.204,121.205 L469.168,121.205 L469.168,128.779 C469.168,132.962 462.99,136.353 455.37,136.353 L413.977,136.353 L413.977,140.789 L437.531,153.718 C442.919,156.676 442.919,161.471 437.531,164.429 L386.382,192.506 L386.382,219.664 C386.382,220.839 385.883,221.999 384.925,223.051 L357.33,253.346 L354.745,255.314 L327.15,270.462 C321.761,273.419 313.025,273.419 307.637,270.462 L280.041,255.314 C277.454,253.894 276,251.967 276,249.959 L276,207.653 L252.446,194.724 C249.858,193.304 248.405,191.377 248.405,189.369 L248.405,177.358 L226.434,165.298 L173.246,150.7 L169.66,149.282 L142.064,134.134 C136.676,131.176 136.676,126.381 142.064,123.423 L165.618,110.494 L165.618,98.4838 C165.618,94.301 171.796,90.9101 179.416,90.9101 L228.892,90.9101 L252.446,77.9809 C257.834,75.0232 266.57,75.0232 271.959,77.9809 L297.971,92.2593 L348.246,106.058 L366.869,106.058 L386.382,95.3467 L386.382,86.4735 L362.827,73.5443 C360.24,72.124 358.786,70.1976 358.786,68.1889 L358.786,60.6151 L331.191,60.6151 L331.191,68.1889 C331.191,72.3717 325.013,75.7626 317.393,75.7626 L289.798,75.7626 C286.138,75.7626 282.629,74.9647 280.041,73.5443 L256.487,60.6151 L234.607,60.6151 C222.314,60.6151 216.158,52.4572 224.85,47.686 L248.405,34.7568 L248.405,24.5344 L241.094,16.5086 M270.757,15.2025 L274.543,19.3594 C275.501,20.411 276,21.5707 276,22.7465 L276,37.8939 C276,39.9026 274.546,41.829 271.959,43.2494 L267.041,45.9487 C268.87,46.3247 270.551,46.9132 271.959,47.686 L295.513,60.6151 L303.595,60.6151 L303.595,53.0414 C303.595,48.8586 309.773,45.4677 317.393,45.4677 L372.584,45.4677 C380.204,45.4677 386.382,48.8586 386.382,53.0414 L386.382,65.0517 L409.936,77.9809 C412.523,79.4013 413.977,81.3277 413.977,83.3364 L413.977,98.4838 C413.977,100.493 412.523,102.419 409.936,103.839 L382.34,118.987 C379.753,120.407 376.243,121.205 372.584,121.205 L344.989,121.205 C342.846,121.205 340.734,120.931 338.818,120.405 L283.627,105.258 L280.041,103.839 L262.202,94.0472 L244.363,103.839 C241.776,105.26 238.266,106.058 234.607,106.058 L193.214,106.058 L193.214,113.631 C193.214,115.64 191.76,117.566 189.173,118.987 L171.334,128.779 L187.589,137.702 L240.777,152.3 L244.363,153.718 L271.959,168.866 C274.546,170.286 276,172.213 276,174.221 L276,186.232 L299.554,199.161 C302.142,200.581 303.595,202.507 303.595,204.516 L303.595,246.821 L317.393,254.395 L333.649,245.472 L358.786,217.876 L358.786,189.369 C358.786,187.36 360.24,185.434 362.827,184.013 L408.262,159.074 L390.423,149.282 C387.835,147.861 386.382,145.935 386.382,143.926 L386.382,128.779 C386.382,124.596 392.559,121.205 400.179,121.205 L441.572,121.205 L441.572,113.631 C441.572,109.448 447.75,106.058 455.37,106.058 L510.227,106.058 C476.132,53.1084 384.137,15.1727 276,15.1727 C274.248,15.1727 272.5,15.1827 270.757,15.2025 M276,302.975 C123.595,302.975 0.0459923,235.157 0.0459923,151.5 C0.0459923,67.8428 123.595,0.0252458 276,0.0252458 C428.405,0.0252458 551.954,67.8428 551.954,151.5 C551.954,235.157 428.405,302.975 276,302.975 "/>
</g>

<g fill="none" stroke="#000000" stroke-opacity="1" stroke-width="1" stroke-linecap="square" stroke-linejoin="bevel" transform="matrix(0.309017,0.951057,-0.951057,0.309017,-36.4835,-228.986)"
font-family="Segoe UI" font-size="9" font-weight="400" font-style="normal" 
>
</g>

<g fill="none" stroke="#000000" stroke-opacity="1" stroke-width="1" stroke-linecap="square" stroke-linejoin="bevel" transform="matrix(-0.809017,0.587785,-0.587785,-0.809017,199.2,-95.7802)"
font-family="Segoe UI" font-size="9" font-weight="400" font-style="normal" 
>
</g>

<g fill="none" stroke="#55ff7f" stroke-opacity="1" stroke-width="1" stroke-linecap="round" stroke-linejoin="round" transform="matrix(-0.809017,0.587785,-0.587785,-0.809017,199.2,-95.7802)"
font-family="Segoe UI" font-size="9" font-weight="400" font-style="normal" 
>
<path vector-effect="none" fill-rule="nonzero" d="M241.094,16.5086 C120.456,25.8228 27.6414,82.7117 27.6414,151.5 C27.6414,226.791 138.835,287.827 276,287.827 C413.165,287.827 524.359,226.791 524.359,151.5 C524.359,141.088 522.232,130.948 518.204,121.205 L469.168,121.205 L469.168,128.779 C469.168,132.962 462.99,136.353 455.37,136.353 L413.977,136.353 L413.977,140.789 L437.531,153.718 C442.919,156.676 442.919,161.471 437.531,164.429 L386.382,192.506 L386.382,219.664 C386.382,220.839 385.883,221.999 384.925,223.051 L357.33,253.346 L354.745,255.314 L327.15,270.462 C321.761,273.419 313.025,273.419 307.637,270.462 L280.041,255.314 C277.454,253.894 276,251.967 276,249.959 L276,207.653 L252.446,194.724 C249.858,193.304 248.405,191.377 248.405,189.369 L248.405,177.358 L226.434,165.298 L173.246,150.7 L169.66,149.282 L142.064,134.134 C136.676,131.176 136.676,126.381 142.064,123.423 L165.618,110.494 L165.618,98.4838 C165.618,94.301 171.796,90.9101 179.416,90.9101 L228.892,90.9101 L252.446,77.9809 C257.834,75.0232 266.57,75.0232 271.959,77.9809 L297.971,92.2593 L348.246,106.058 L366.869,106.058 L386.382,95.3467 L386.382,86.4735 L362.827,73.5443 C360.24,72.124 358.786,70.1976 358.786,68.1889 L358.786,60.6151 L331.191,60.6151 L331.191,68.1889 C331.191,72.3717 325.013,75.7626 317.393,75.7626 L289.798,75.7626 C286.138,75.7626 282.629,74.9647 280.041,73.5443 L256.487,60.6151 L234.607,60.6151 C222.314,60.6151 216.158,52.4572 224.85,47.686 L248.405,34.7568 L248.405,24.5344 L241.094,16.5086 M270.757,15.2025 L274.543,19.3594 C275.501,20.411 276,21.5707 276,22.7465 L276,37.8939 C276,39.9026 274.546,41.829 271.959,43.2494 L267.041,45.9487 C268.87,46.3247 270.551,46.9132 271.959,47.686 L295.513,60.6151 L303.595,60.6151 L303.595,53.0414 C303.595,48.8586 309.773,45.4677 317.393,45.4677 L372.584,45.4677 C380.204,45.4677 386.382,48.8586 386.382,53.0414 L386.382,65.0517 L409.936,77.9809 C412.523,79.4013 413.977,81.3277 413.977,83.3364 L413.977,98.4838 C413.977,100.493 412.523,102.419 409.936,103.839 L382.34,118.987 C379.753,120.407 376.243,121.205 372.584,121.205 L344.989,121.205 C342.846,121.205 340.734,120.931 338.818,120.405 L283.627,105.258 L280.041,103.839 L262.202,94.0472 L244.363,103.839 C241.776,105.26 238.266,106.058 234.607,106.058 L193.214,106.058 L193.214,113.631 C193.214,115.64 191.76,117.566 189.173,118.987 L171.334,128.779 L187.589,137.702 L240.777,152.3 L244.363,153.718 L271.959,168.866 C274.546,170.286 276,172.213 276,174.221 L276,186.232 L299.554,199.161 C302.142,200.581 303.595,202.507 303.595,204.516 L303.595,246.821 L317.393,254.395 L333.649,245.472 L358.786,217.876 L358.786,189.369 C358.786,187.36 360.24,185.434 362.827,184.013 L408.262,159.074 L390.423,149.282 C387.835,147.861 386.382,145.935 386.382,143.926 L386.382,128.779 C386.382,124.596 392.559,121.205 400.179,121.205 L441.572,121.205 L441.572,113.631 C441.572,109.448 447.75,106.058 455.37,106.058 L510.227,106.058 C476.132,53.1084 384.137,15.1727 276,15.1727 C274.248,15.1727 272.5,15.1827 270.757,15.2025 M276,302.975 C123.595,302.975 0.0459923,235.157 0.0459923,151.5 C0.0459923,67.8428 123.595,0.0252458 276,0.0252458 C428.405,0.0252458 551.954,67.8428 551.954,151.5 C551.954,235.157 428.405,302.975 276,302.975 "/>
</g>

<g fill="none" stroke="#000000" stroke-opacity="1" stroke-width="1" stroke-linecap="square" stroke-linejoin="bevel" transform="matrix(-0.809017,0.587785,-0.587785,-0.809017,199.2,-95.7802)"
font-family="Segoe UI" font-size="9" font-weight="400" font-style="normal" 
>
</g>

<g fill="none" stroke="#000000" stroke-opacity="1" stroke-width="1" stroke-linecap="square" stroke-linejoin="bevel" transform="matrix(-0.809017,-0.587785,0.587785,-0.809017,145.345,169.531)"
font-family="Segoe UI" font-size="9" font-weight="400" font-style="normal" 
>
</g>

<g fill="none" stroke="#55ff7f" stroke-opacity="1" stroke-width="1" stroke-linecap="round" stroke-linejoin="round" transform="matrix(-0.809017,-0.587785,0.587785,-0.809017,145.345,169.531)"
font-family="Segoe UI" font-size="9" font-weight="400" font-style="normal" 
>
<path vector-effect="none" fill-rule="nonzero" d="M241.094,16.5086 C120.456,25.8228 27.6414,82.7117 27.6414,151.5 C27.6414,226.791 138.835,287.827 276,287.827 C413.165,287.827 524.359,226.791 524.359,151.5 C524.359,141.088 522.232,130.948 518.204,121.205 L469.168,121.205 L469.168,128.779 C469.168,132.962 462.99,136.353 455.37,136.353 L413.977,136.353 L413.977,140.789 L437.531,153.718 C442.919,156.676 442.919,161.471 437.531,164.429 L386.382,192.506 L386.382,219.664 C386.382,220.839 385.883,221.999 384.925,223.051 L357.33,253.346 L354.745,255.314 L327.15,270.462 C321.761,273.419 313.025,273.419 307.637,270.462 L280.041,255.314 C277.454,253.894 276,251.967 276,249.959 L276,207.653 L252.446,194.724 C249.858,193.304 248.405,191.377 248.405,189.369 L248.405,177.358 L226.434,165.298 L173.246,150.7 L169.66,149.282 L142.064,134.134 C136.676,131.176 136.676,126.381 142.064,123.423 L165.618,110.494 L165.618,98.4838 C165.618,94.301 171.796,90.9101 179.416,90.9101 L228.892,90.9101 L252.446,77.9809 C257.834,75.0232 266.57,75.0232 271.959,77.9809 L297.971,92.2593 L348.246,106.058 L366.869,106.058 L386.382,95.3467 L386.382,86.4735 L362.827,73.5443 C360.24,72.124 358.786,70.1976 358.786,68.1889 L358.786,60.6151 L331.191,60.6151 L331.191,68.1889 C331.191,72.3717 325.013,75.7626 317.393,75.7626 L289.798,75.7626 C286.138,75.7626 282.629,74.9647 280.041,73.5443 L256.487,60.6151 L234.607,60.6151 C222.314,60.6151 216.158,52.4572 224.85,47.686 L248.405,34.7568 L248.405,24.5344 L241.094,16.5086 M270.757,15.2025 L274.543,19.3594 C275.501,20.411 276,21.5707 276,22.7465 L276,37.8939 C276,39.9026 274.546,41.829 271.959,43.2494 L267.041,45.9487 C268.87,46.3247 270.551,46.9132 271.959,47.686 L295.513,60.6151 L303.595,60.6151 L303.595,53.0414 C303.595,48.8586 309.773,45.4677 317.393,45.4677 L372.584,45.4677 C380.204,45.4677 386.382,48.8586 386.382,53.0414 L386.382,65.0517 L409.936,77.9809 C412.523,79.4013 413.977,81.3277 413.977,83.3364 L413.977,98.4838 C413.977,100.493 412.523,102.419 409.936,103.839 L382.34,118.987 C379.753,120.407 376.243,121.205 372.584,121.205 L344.989,121.205 C342.846,121.205 340.734,120.931 338.818,120.405 L283.627,105.258 L280.041,103.839 L262.202,94.0472 L244.363,103.839 C241.776,105.26 238.266,106.058 234.607,106.058 L193.214,106.058 L193.214,113.631 C193.214,115.64 191.76,117.566 189.173,118.987 L171.334,128.779 L187.589,137.702 L240.777,152.3 L244.363,153.718 L271.959,168.866 C274.546,170.286 276,172.213 276,174.221 L276,186.232 L299.554,199.161 C302.142,200.581 303.595,202.507 303.595,204.516 L303.595,246.821 L317.393,254.395 L333.649,245.472 L358.786,217.876 L358.786,189.369 C358.786,187.36 360.24,185.434 362.827,184.013 L408.262,159.074 L390.423,149.282 C387.835,147.861 386.382,145.935 386.382,143.926 L386.382,128.779 C386.382,124.596 392.559,121.205 400.179,121.205 L441.572,121.205 L441.572,113.631 C441.572,109.448 447.75,106.058 455.37,106.058 L510.227,106.058 C476.132,53.1084 384.137,15.1727 276,15.1727 C274.248,15.1727 272.5,15.1827 270.757,15.2025 M276,302.975 C123.595,302.975 0.0459923,235.157 0.0459923,151.5 C0.0459923,67.8428 123.595,0.0252458 276,0.0252458 C428.405,0.0252458 551.954,67.8428 551.954,151.5 C551.954,235.157 428.405,302.975 276,302.975 "/>
</g>

<g fill="none" stroke="#000000" stroke-opacity="1" stroke-width="1" stroke-linecap="square" stroke-linejoin="bevel" transform="matrix(-0.809017,-0.587785,0.587785,-0.809017,145.345,169.531)"
font-family="Segoe UI" font-size="9" font-weight="400" font-style="normal" 
>
</g>

<g fill="none" stroke="#000000" stroke-opacity="1" stroke-width="1" stroke-linecap="square" stroke-linejoin="bevel" transform="matrix(0.309017,-0.951057,0.951057,0.309017,-123.624,200.297)"
font-family="Segoe UI" font-size="9" font-weight="400" font-style="normal" 
>
</g>

<g fill="none" stroke="#55ff7f" stroke-opacity="1" stroke-width="1" stroke-linecap="round" stroke-linejoin="round" transform="matrix(0.309017,-0.951057,0.951057,0.309017,-123.624,200.297)"
font-family="Segoe UI" font-size="9" font-weight="400" font-style="normal" 
>
<path vector-effect="none" fill-rule="nonzero" d="M241.094,16.5086 C120.456,25.8228 27.6414,82.7117 27.6414,151.5 C27.6414,226.791 138.835,287.827 276,287.827 C413.165,287.827 524.359,226.791 524.359,151.5 C524.359,141.088 522.232,130.948 518.204,121.205 L469.168,121.205 L469.168,128.779 C469.168,132.962 462.99,136.353 455.37,136.353 L413.977,136.353 L413.977,140.789 L437.531,153.718 C442.919,156.676 442.919,161.471 437.531,164.429 L386.382,192.506 L386.382,219.664 C386.382,220.839 385.883,221.999 384.925,223.051 L357.33,253.346 L354.745,255.314 L327.15,270.462 C321.761,273.419 313.025,273.419 307.637,270.462 L280.041,255.314 C277.454,253.894 276,251.967 276,249.959 L276,207.653 L252.446,194.724 C249.858,193.304 248.405,191.377 248.405,189.369 L248.405,177.358 L226.434,165.298 L173.246,150.7 L169.66,149.282 L142.064,134.134 C136.676,131.176 136.676,126.381 142.064,123.423 L165.618,110.494 L165.618,98.4838 C165.618,94.301 171.796,90.9101 179.416,90.9101 L228.892,90.9101 L252.446,77.9809 C257.834,75.0232 266.57,75.0232 271.959,77.9809 L297.971,92.2593 L348.246,106.058 L366.869,106.058 L386.382,95.3467 L386.382,86.4735 L362.827,73.5443 C360.24,72.124 358.786,70.1976 358.786,68.1889 L358.786,60.6151 L331.191,60.6151 L331.191,68.1889 C331.191,72.3717 325.013,75.7626 317.393,75.7626 L289.798,75.7626 C286.138,75.7626 282.629,74.9647 280.041,73.5443 L256.487,60.6151 L234.607,60.6151 C222.314,60.6151 216.158,52.4572 224.85,47.686 L248.405,34.7568 L248.405,24.5344 L241.094,16.5086 M270.757,15.2025 L274.543,19.3594 C275.501,20.411 276,21.5707 276,22.7465 L276,37.8939 C276,39.9026 274.546,41.829 271.959,43.2494 L267.041,45.9487 C268.87,46.3247 270.551,46.9132 271.959,47.686 L295.513,60.6151 L303.595,60.6151 L303.595,53.0414 C303.595,48.8586 309.773,45.4677 317.393,45.4677 L372.584,45.4677 C380.204,45.4677 386.382,48.8586 386.382,53.0414 L386.382,65.0517 L409.936,77.9809 C412.523,79.4013 413.977,81.3277 413.977,83.3364 L413.977,98.4838 C413.977,100.493 412.523,102.419 409.936,103.839 L382.34,118.987 C379.753,120.407 376.243,121.205 372.584,121.205 L344.989,121.205 C342.846,121.205 340.734,120.931 338.818,120.405 L283.627,105.258 L280.041,103.839 L262.202,94.0472 L244.363,103.839 C241.776,105.26 238.266,106.058 234.607,106.058 L193.214,106.058 L193.214,113.631 C193.214,115.64 191.76,117.566 189.173,118.987 L171.334,128.779 L187.589,137.702 L240.777,152.3 L244.363,153.718 L271.959,168.866 C274.546,170.286 276,172.213 276,174.221 L276,186.232 L299.554,199.161 C302.142,200.581 303.595,202.507 303.595,204.516 L303.595,246.821 L317.393,254.395 L333.649,245.472 L358.786,217.876 L358.786,189.369 C358.786,187.36 360.24,185.434 362.827,184.013 L408.262,159.074 L390.423,149.282 C387.835,147.861 386.382,145.935 386.382,143.926 L386.382,128.779 C386.382,124.596 392.559,121.205 400.179,121.205 L441.572,121.205 L441.572,113.631 C441.572,109.448 447.75,106.058 455.37,106.058 L510.227,106.058 C476.132,53.1084 384.137,15.1727 276,15.1727 C274.248,15.1727 272.5,15.1827 270.757,15.2025 M276,302.975 C123.595,302.975 0.0459923,235.157 0.0459923,151.5 C0.0459923,67.8428 123.595,0.0252458 276,0.0252458 C428.405,0.0252458 551.954,67.8428 551.954,151.5 C551.954,235.157 428.405,302.975 276,302.975 "/>
</g>

<g fill="none" stroke="#000000" stroke-opacity="1" stroke-width="1" stroke-linecap="square" stroke-linejoin="bevel" transform="matrix(0.309017,-0.951057,0.951057,0.309017,-123.624,200.297)"
font-family="Segoe UI" font-size="9" font-weight="400" font-style="normal" 
>
</g>

<g fill="none" stroke="#000000" stroke-opacity="1" stroke-width="1" stroke-linecap="square" stroke-linejoin="bevel" transform="matrix(1,0,0,1,0,0)"
font-family="Segoe UI" font-size="9" font-weight="400" font-style="normal" 
>
</g>
</g>
</svg>
