<svg xmlns="http://www.w3.org/2000/svg" id="main-svg" width="1920" height="1080" viewBox="0 0 1920 1080" preserveAspectRatio="xMidYMid meet"><defs><style>
            @import url('https://cdnjs.cloudflare.com/ajax/libs/font-awesome/6.4.0/css/all.min.css');
            @import url('https://fonts.googleapis.com/css2?family=Outfit:wght@300;500;700&amp;display=swap');
            text { white-space: pre; }
        </style></defs>
                    <rect id="svg-bg" width="1920" height="1080" fill="#ffffff"/>
                    <g id="drawing-layer"><path d="M 297.4182444061962 374.76764199655764 L 307.3321858864027 378.0722891566265 L 396.5576592082616 434.2512908777969 L 502.3063683304647 497.039586919105 L 634.4922547332186 569.7418244406196 L 723.7177280550775 632.5301204819277 L 760.0688468158347 665.5765920826161 L 769.9827882960412 692.013769363167 L 769.9827882960412 708.5370051635111 L 750.1549053356282 744.8881239242685 L 693.9759036144578 784.5438898450947 L 588.2271944922547 807.6764199655765 L 426.2994836488812 837.4182444061962 L 290.80895008605853 857.2461273666092 L 218.1067125645439 867.1600688468158 L 191.6695352839931 873.7693631669536 L 198.2788296041308 867.1600688468158" stroke="#e51f1f" stroke-width="28" fill="none" stroke-linecap="round" stroke-linejoin="round"/><path d="M 297.4182444061962 374.76764199655764 L 307.3321858864027 378.0722891566265 L 396.5576592082616 434.2512908777969 L 502.3063683304647 497.039586919105 L 634.4922547332186 569.7418244406196 L 723.7177280550775 632.5301204819277 L 760.0688468158347 665.5765920826161 L 769.9827882960412 692.013769363167 L 769.9827882960412 708.5370051635111 L 750.1549053356282 744.8881239242685 L 693.9759036144578 784.5438898450947 L 588.2271944922547 807.6764199655765 L 426.2994836488812 837.4182444061962 L 290.80895008605853 857.2461273666092 L 218.1067125645439 867.1600688468158 L 191.6695352839931 873.7693631669536 L 198.2788296041308 867.1600688468158" stroke="#e51f1f" stroke-width="28" fill="none" stroke-linecap="round" stroke-linejoin="round" transform="scale(1, -1) translate(0, -1080) "/><path d="M 584.9225473321859 153.3562822719449 L 584.9225473321859 169.87951807228916 L 584.9225473321859 245.88640275387263 L 584.9225473321859 351.6351118760757 L 584.9225473321859 523.4767641996558 L 584.9225473321859 705.2323580034423 L 584.9225473321859 913.4251290877796 L 584.9225473321859 986.1273666092943 L 588.2271944922547 1025.7831325301204 L 591.5318416523236 1032.392426850258" stroke="#e51f1f" stroke-width="28" fill="none" stroke-linecap="round" stroke-linejoin="round"/><path d="M 584.9225473321859 153.3562822719449 L 584.9225473321859 169.87951807228916 L 584.9225473321859 245.88640275387263 L 584.9225473321859 351.6351118760757 L 584.9225473321859 523.4767641996558 L 584.9225473321859 705.2323580034423 L 584.9225473321859 913.4251290877796 L 584.9225473321859 986.1273666092943 L 588.2271944922547 1025.7831325301204 L 591.5318416523236 1032.392426850258" stroke="#e51f1f" stroke-width="28" fill="none" stroke-linecap="round" stroke-linejoin="round" transform="scale(1, -1) translate(0, -1080) "/></g>
                    <g id="overlay-layer" style="pointer-events: none;"/>
                    <g id="guide-layer" style="pointer-events: none;"><line x1="0" y1="540" x2="1920" y2="540" stroke="rgba(0,0,0,0.1)" stroke-width="1" stroke-dasharray="10,10"/><line x1="960" y1="0" x2="960" y2="1080" stroke="rgba(0,0,0,0.1)" stroke-width="1" stroke-dasharray="10,10"/><circle cx="960" cy="540" r="5" fill="rgba(0,0,0,0.2)"/></g>
                </svg>