<svg xmlns="http://www.w3.org/2000/svg" id="main-svg" width="1920" height="1080" viewBox="0 0 1920 1080" preserveAspectRatio="xMidYMid meet"><defs><style>
            @import url('https://cdnjs.cloudflare.com/ajax/libs/font-awesome/6.4.0/css/all.min.css');
            @import url('https://fonts.googleapis.com/css2?family=Outfit:wght@300;500;700&amp;display=swap');
            text { white-space: pre; }
        </style></defs>
                    <rect id="svg-bg" width="1920" height="1080" fill="#ffffff"/>
                    <g id="drawing-layer"><ellipse cx="662.5817555938038" cy="531.7383820998278" rx="226.368330464716" ry="206.54044750430293" stroke="#e51f1f" stroke-width="28" fill="none" stroke-linecap="round" stroke-linejoin="round"/><ellipse cx="662.5817555938038" cy="531.7383820998278" rx="226.368330464716" ry="206.54044750430293" stroke="#e51f1f" stroke-width="28" fill="none" stroke-linecap="round" stroke-linejoin="round" transform="rotate(72, 960, 540) "/><ellipse cx="662.5817555938038" cy="531.7383820998278" rx="226.368330464716" ry="206.54044750430293" stroke="#e51f1f" stroke-width="28" fill="none" stroke-linecap="round" stroke-linejoin="round" transform="rotate(144, 960, 540) "/><ellipse cx="662.5817555938038" cy="531.7383820998278" rx="226.368330464716" ry="206.54044750430293" stroke="#e51f1f" stroke-width="28" fill="none" stroke-linecap="round" stroke-linejoin="round" transform="rotate(216, 960, 540) "/><ellipse cx="662.5817555938038" cy="531.7383820998278" rx="226.368330464716" ry="206.54044750430293" stroke="#e51f1f" stroke-width="28" fill="none" stroke-linecap="round" stroke-linejoin="round" transform="rotate(288, 960, 540) "/><ellipse cx="986.8244027915694" cy="518.4367095103772" rx="8.863020731774611" ry="8.144397429198335" stroke="#e51f1f" stroke-width="5" fill="none" stroke-linecap="round" stroke-linejoin="round"/><ellipse cx="986.8244027915694" cy="518.4367095103772" rx="8.863020731774611" ry="8.144397429198335" stroke="#e51f1f" stroke-width="5" fill="none" stroke-linecap="round" stroke-linejoin="round" transform="rotate(72, 960, 540) "/><ellipse cx="986.8244027915694" cy="518.4367095103772" rx="8.863020731774611" ry="8.144397429198335" stroke="#e51f1f" stroke-width="5" fill="none" stroke-linecap="round" stroke-linejoin="round" transform="rotate(144, 960, 540) "/><ellipse cx="986.8244027915694" cy="518.4367095103772" rx="8.863020731774611" ry="8.144397429198335" stroke="#e51f1f" stroke-width="5" fill="none" stroke-linecap="round" stroke-linejoin="round" transform="rotate(216, 960, 540) "/><ellipse cx="986.8244027915694" cy="518.4367095103772" rx="8.863020731774611" ry="8.144397429198335" stroke="#e51f1f" stroke-width="5" fill="none" stroke-linecap="round" stroke-linejoin="round" transform="rotate(288, 960, 540) "/><ellipse cx="988.5810375312003" cy="539.9155615540473" rx="4.710974983555843" ry="4.391586849077498" stroke="#e51f1f" stroke-width="1" fill="none" stroke-linecap="round" stroke-linejoin="round"/><ellipse cx="988.5810375312003" cy="539.9155615540473" rx="4.710974983555843" ry="4.391586849077498" stroke="#e51f1f" stroke-width="1" fill="none" stroke-linecap="round" stroke-linejoin="round" transform="rotate(72, 960, 540) "/><ellipse cx="988.5810375312003" cy="539.9155615540473" rx="4.710974983555843" ry="4.391586849077498" stroke="#e51f1f" stroke-width="1" fill="none" stroke-linecap="round" stroke-linejoin="round" transform="rotate(144, 960, 540) "/><ellipse cx="988.5810375312003" cy="539.9155615540473" rx="4.710974983555843" ry="4.391586849077498" stroke="#e51f1f" stroke-width="1" fill="none" stroke-linecap="round" stroke-linejoin="round" transform="rotate(216, 960, 540) "/><ellipse cx="988.5810375312003" cy="539.9155615540473" rx="4.710974983555843" ry="4.391586849077498" stroke="#e51f1f" stroke-width="1" fill="none" stroke-linecap="round" stroke-linejoin="round" transform="rotate(288, 960, 540) "/></g>
                    <g id="overlay-layer" style="pointer-events: none;"/>
                    <g id="guide-layer" style="pointer-events: none;"><line x1="0" y1="540" x2="1920" y2="540" stroke="rgba(0,0,0,0.1)" stroke-width="1" stroke-dasharray="10,10"/><line x1="960" y1="0" x2="960" y2="1080" stroke="rgba(0,0,0,0.1)" stroke-width="1" stroke-dasharray="10,10"/><circle cx="960" cy="540" r="5" fill="rgba(0,0,0,0.2)"/></g>
                </svg>