<svg xmlns="http://www.w3.org/2000/svg" id="main-svg" width="1920" height="1080" viewBox="0 0 1920 1080" preserveAspectRatio="xMidYMid meet">
                    <rect id="svg-bg" width="1920" height="1080" fill="#ffffff"/>
                    <g id="drawing-layer"><path d="M 439.51807228915663 582.960413080895L 826.1617900172117 804.3717728055077L 826.1617900172117 487.12564543889846L 948.433734939759 487.12564543889846L 958.3476764199655 467.29776247848537L 938.5197934595525 444.16523235800344L 842.6850258175559 454.07917383820995L 522.1342512908777 470.6024096385542L 773.2874354561102 692.013769363167 L 456.04130808950083 566.4371772805507 Z" stroke="#000000" stroke-width="28" fill="none" stroke-linecap="round" stroke-linejoin="round"/></g>
                    <g id="overlay-layer" style="pointer-events: none;"><path d="M 439.51807228915663 582.960413080895L 826.1617900172117 804.3717728055077L 826.1617900172117 487.12564543889846L 948.433734939759 487.12564543889846L 958.3476764199655 467.29776247848537L 938.5197934595525 444.16523235800344L 842.6850258175559 454.07917383820995L 522.1342512908777 470.6024096385542L 773.2874354561102 692.013769363167 L 456.04130808950083 566.4371772805507" stroke="#000000" stroke-width="28" fill="none" stroke-linecap="round" stroke-linejoin="round" transform="rotate(90, 960, 540)"/><path d="M 439.51807228915663 582.960413080895L 826.1617900172117 804.3717728055077L 826.1617900172117 487.12564543889846L 948.433734939759 487.12564543889846L 958.3476764199655 467.29776247848537L 938.5197934595525 444.16523235800344L 842.6850258175559 454.07917383820995L 522.1342512908777 470.6024096385542L 773.2874354561102 692.013769363167 L 456.04130808950083 566.4371772805507" stroke="#000000" stroke-width="28" fill="none" stroke-linecap="round" stroke-linejoin="round" transform="rotate(180, 960, 540)"/><path d="M 439.51807228915663 582.960413080895L 826.1617900172117 804.3717728055077L 826.1617900172117 487.12564543889846L 948.433734939759 487.12564543889846L 958.3476764199655 467.29776247848537L 938.5197934595525 444.16523235800344L 842.6850258175559 454.07917383820995L 522.1342512908777 470.6024096385542L 773.2874354561102 692.013769363167 L 456.04130808950083 566.4371772805507" stroke="#000000" stroke-width="28" fill="none" stroke-linecap="round" stroke-linejoin="round" transform="rotate(270, 960, 540)"/></g>
                    <g id="guide-layer" style="pointer-events: none;"><line x1="0" y1="540" x2="1920" y2="540" stroke="rgba(0,0,0,0.1)" stroke-width="1" stroke-dasharray="10,10"/><line x1="960" y1="0" x2="960" y2="1080" stroke="rgba(0,0,0,0.1)" stroke-width="1" stroke-dasharray="10,10"/><circle cx="960" cy="540" r="5" fill="rgba(0,0,0,0.2)"/></g>
                </svg>