<svg xmlns="http://www.w3.org/2000/svg" id="main-svg" width="1920" height="1080" viewBox="0 0 1920 1080" preserveAspectRatio="xMidYMid meet"><defs><style>
            @import url('https://cdnjs.cloudflare.com/ajax/libs/font-awesome/6.4.0/css/all.min.css');
            @import url('https://fonts.googleapis.com/css2?family=Outfit:wght@300;500;700&amp;display=swap');
            text { white-space: pre; }
        </style></defs>
                    <rect id="svg-bg" width="1920" height="1080" fill="#ffffff"/>
                    <g id="drawing-layer"><text x="568.3993115318417" y="734.974182444062" font-family="&quot;Font Awesome 6 Free&quot;" font-weight="900" font-size="337.0740103270224" text-anchor="middle" dominant-baseline="middle" stroke="none" stroke-width="28" fill="#000000" stroke-linecap="round" stroke-linejoin="round"></text><text x="568.3993115318417" y="734.974182444062" font-family="&quot;Font Awesome 6 Free&quot;" font-weight="900" font-size="337.0740103270224" text-anchor="middle" dominant-baseline="middle" stroke="none" stroke-width="28" fill="#000000" stroke-linecap="round" stroke-linejoin="round" transform="rotate(72, 960, 540)"></text><text x="568.3993115318417" y="734.974182444062" font-family="&quot;Font Awesome 6 Free&quot;" font-weight="900" font-size="337.0740103270224" text-anchor="middle" dominant-baseline="middle" stroke="none" stroke-width="28" fill="#000000" stroke-linecap="round" stroke-linejoin="round" transform="rotate(144, 960, 540)"></text><text x="568.3993115318417" y="734.974182444062" font-family="&quot;Font Awesome 6 Free&quot;" font-weight="900" font-size="337.0740103270224" text-anchor="middle" dominant-baseline="middle" stroke="none" stroke-width="28" fill="#000000" stroke-linecap="round" stroke-linejoin="round" transform="rotate(216, 960, 540)"></text><text x="568.3993115318417" y="734.974182444062" font-family="&quot;Font Awesome 6 Free&quot;" font-weight="900" font-size="337.0740103270224" text-anchor="middle" dominant-baseline="middle" stroke="none" stroke-width="28" fill="#000000" stroke-linecap="round" stroke-linejoin="round" transform="rotate(288, 960, 540)"></text><path d="M 234.62994836488812 463.9931153184165 L 244.54388984509467 467.29776247848537 L 254.45783132530119 487.12564543889846 L 264.37177280550776 506.9535283993115 L 280.89500860585196 533.3907056798623 L 300.72289156626505 559.827882960413 L 310.63683304647157 573.0464716006885 L 313.94148020654046 582.960413080895 L 313.94148020654046 596.1790017211704 L 317.2461273666093 609.3975903614457 L 320.55077452667814 625.92082616179 L 323.855421686747 655.6626506024096 L 327.1600688468158 678.7951807228916 L 333.7693631669535 705.2323580034423 L 337.0740103270224 731.6695352839931 L 346.9879518072289 751.4974182444062 L 346.9879518072289 764.7160068846815 L 350.29259896729775 771.3253012048193 L 350.29259896729775 784.5438898450947 L 353.5972461273666 797.76247848537 L 353.5972461273666 807.6764199655765 L 356.9018932874354 820.895008605852 L 360.20654044750427 834.1135972461274 L 360.20654044750427 844.0275387263339 L 363.51118760757316 863.8554216867469 L 366.815834767642 880.3786574870912 L 370.12048192771084 893.5972461273666 L 370.12048192771084 916.7297762478485 L 370.12048192771084 929.9483648881239 L 370.12048192771084 946.4716006884681 L 370.12048192771084 953.0808950086058 L 370.12048192771084 959.6901893287435 L 366.815834767642 966.2994836488812 L 356.9018932874354 976.2134251290878 L 337.0740103270224 979.5180722891566 L 304.0275387263339 986.1273666092943 L 267.6764199655766 992.736660929432 L 224.71600688468158 992.736660929432 L 181.75559380378658 992.736660929432 L 158.62306368330465 992.736660929432 L 145.40447504302927 989.4320137693632 L 125.57659208261617 966.2994836488812 L 118.96729776247848 936.5576592082616 L 112.35800344234079 906.815834767642 L 109.05335628227195 880.3786574870912 L 109.05335628227195 847.3321858864027 L 109.05335628227195 824.1996557659209 L 109.05335628227195 801.0671256454389 L 118.96729776247848 774.6299483648882 L 128.881239242685 761.4113597246127 L 145.40447504302927 744.8881239242685 L 158.62306368330465 738.2788296041308 L 178.4509466437177 731.6695352839931 L 224.71600688468158 731.6695352839931 L 277.5903614457831 731.6695352839931 L 350.29259896729775 731.6695352839931 L 439.51807228915663 731.6695352839931 L 528.7435456110155 731.6695352839931 L 627.8829604130809 728.3648881239243 L 710.499139414802 715.1462994836488 L 783.2013769363167 692.013769363167 L 839.3803786574871 672.1858864027539 L 875.7314974182444 655.6626506024096 L 902.1686746987951 635.8347676419966 L 931.9104991394148 616.0068846815834 L 951.7383820998278 602.7882960413081 L 955.0430292598967 599.4836488812392" stroke="#000000" stroke-width="28" fill="none" stroke-linecap="round" stroke-linejoin="round"/><path d="M 234.62994836488812 463.9931153184165 L 244.54388984509467 467.29776247848537 L 254.45783132530119 487.12564543889846 L 264.37177280550776 506.9535283993115 L 280.89500860585196 533.3907056798623 L 300.72289156626505 559.827882960413 L 310.63683304647157 573.0464716006885 L 313.94148020654046 582.960413080895 L 313.94148020654046 596.1790017211704 L 317.2461273666093 609.3975903614457 L 320.55077452667814 625.92082616179 L 323.855421686747 655.6626506024096 L 327.1600688468158 678.7951807228916 L 333.7693631669535 705.2323580034423 L 337.0740103270224 731.6695352839931 L 346.9879518072289 751.4974182444062 L 346.9879518072289 764.7160068846815 L 350.29259896729775 771.3253012048193 L 350.29259896729775 784.5438898450947 L 353.5972461273666 797.76247848537 L 353.5972461273666 807.6764199655765 L 356.9018932874354 820.895008605852 L 360.20654044750427 834.1135972461274 L 360.20654044750427 844.0275387263339 L 363.51118760757316 863.8554216867469 L 366.815834767642 880.3786574870912 L 370.12048192771084 893.5972461273666 L 370.12048192771084 916.7297762478485 L 370.12048192771084 929.9483648881239 L 370.12048192771084 946.4716006884681 L 370.12048192771084 953.0808950086058 L 370.12048192771084 959.6901893287435 L 366.815834767642 966.2994836488812 L 356.9018932874354 976.2134251290878 L 337.0740103270224 979.5180722891566 L 304.0275387263339 986.1273666092943 L 267.6764199655766 992.736660929432 L 224.71600688468158 992.736660929432 L 181.75559380378658 992.736660929432 L 158.62306368330465 992.736660929432 L 145.40447504302927 989.4320137693632 L 125.57659208261617 966.2994836488812 L 118.96729776247848 936.5576592082616 L 112.35800344234079 906.815834767642 L 109.05335628227195 880.3786574870912 L 109.05335628227195 847.3321858864027 L 109.05335628227195 824.1996557659209 L 109.05335628227195 801.0671256454389 L 118.96729776247848 774.6299483648882 L 128.881239242685 761.4113597246127 L 145.40447504302927 744.8881239242685 L 158.62306368330465 738.2788296041308 L 178.4509466437177 731.6695352839931 L 224.71600688468158 731.6695352839931 L 277.5903614457831 731.6695352839931 L 350.29259896729775 731.6695352839931 L 439.51807228915663 731.6695352839931 L 528.7435456110155 731.6695352839931 L 627.8829604130809 728.3648881239243 L 710.499139414802 715.1462994836488 L 783.2013769363167 692.013769363167 L 839.3803786574871 672.1858864027539 L 875.7314974182444 655.6626506024096 L 902.1686746987951 635.8347676419966 L 931.9104991394148 616.0068846815834 L 951.7383820998278 602.7882960413081 L 955.0430292598967 599.4836488812392" stroke="#000000" stroke-width="28" fill="none" stroke-linecap="round" stroke-linejoin="round" transform="rotate(72, 960, 540)"/><path d="M 234.62994836488812 463.9931153184165 L 244.54388984509467 467.29776247848537 L 254.45783132530119 487.12564543889846 L 264.37177280550776 506.9535283993115 L 280.89500860585196 533.3907056798623 L 300.72289156626505 559.827882960413 L 310.63683304647157 573.0464716006885 L 313.94148020654046 582.960413080895 L 313.94148020654046 596.1790017211704 L 317.2461273666093 609.3975903614457 L 320.55077452667814 625.92082616179 L 323.855421686747 655.6626506024096 L 327.1600688468158 678.7951807228916 L 333.7693631669535 705.2323580034423 L 337.0740103270224 731.6695352839931 L 346.9879518072289 751.4974182444062 L 346.9879518072289 764.7160068846815 L 350.29259896729775 771.3253012048193 L 350.29259896729775 784.5438898450947 L 353.5972461273666 797.76247848537 L 353.5972461273666 807.6764199655765 L 356.9018932874354 820.895008605852 L 360.20654044750427 834.1135972461274 L 360.20654044750427 844.0275387263339 L 363.51118760757316 863.8554216867469 L 366.815834767642 880.3786574870912 L 370.12048192771084 893.5972461273666 L 370.12048192771084 916.7297762478485 L 370.12048192771084 929.9483648881239 L 370.12048192771084 946.4716006884681 L 370.12048192771084 953.0808950086058 L 370.12048192771084 959.6901893287435 L 366.815834767642 966.2994836488812 L 356.9018932874354 976.2134251290878 L 337.0740103270224 979.5180722891566 L 304.0275387263339 986.1273666092943 L 267.6764199655766 992.736660929432 L 224.71600688468158 992.736660929432 L 181.75559380378658 992.736660929432 L 158.62306368330465 992.736660929432 L 145.40447504302927 989.4320137693632 L 125.57659208261617 966.2994836488812 L 118.96729776247848 936.5576592082616 L 112.35800344234079 906.815834767642 L 109.05335628227195 880.3786574870912 L 109.05335628227195 847.3321858864027 L 109.05335628227195 824.1996557659209 L 109.05335628227195 801.0671256454389 L 118.96729776247848 774.6299483648882 L 128.881239242685 761.4113597246127 L 145.40447504302927 744.8881239242685 L 158.62306368330465 738.2788296041308 L 178.4509466437177 731.6695352839931 L 224.71600688468158 731.6695352839931 L 277.5903614457831 731.6695352839931 L 350.29259896729775 731.6695352839931 L 439.51807228915663 731.6695352839931 L 528.7435456110155 731.6695352839931 L 627.8829604130809 728.3648881239243 L 710.499139414802 715.1462994836488 L 783.2013769363167 692.013769363167 L 839.3803786574871 672.1858864027539 L 875.7314974182444 655.6626506024096 L 902.1686746987951 635.8347676419966 L 931.9104991394148 616.0068846815834 L 951.7383820998278 602.7882960413081 L 955.0430292598967 599.4836488812392" stroke="#000000" stroke-width="28" fill="none" stroke-linecap="round" stroke-linejoin="round" transform="rotate(144, 960, 540)"/><path d="M 234.62994836488812 463.9931153184165 L 244.54388984509467 467.29776247848537 L 254.45783132530119 487.12564543889846 L 264.37177280550776 506.9535283993115 L 280.89500860585196 533.3907056798623 L 300.72289156626505 559.827882960413 L 310.63683304647157 573.0464716006885 L 313.94148020654046 582.960413080895 L 313.94148020654046 596.1790017211704 L 317.2461273666093 609.3975903614457 L 320.55077452667814 625.92082616179 L 323.855421686747 655.6626506024096 L 327.1600688468158 678.7951807228916 L 333.7693631669535 705.2323580034423 L 337.0740103270224 731.6695352839931 L 346.9879518072289 751.4974182444062 L 346.9879518072289 764.7160068846815 L 350.29259896729775 771.3253012048193 L 350.29259896729775 784.5438898450947 L 353.5972461273666 797.76247848537 L 353.5972461273666 807.6764199655765 L 356.9018932874354 820.895008605852 L 360.20654044750427 834.1135972461274 L 360.20654044750427 844.0275387263339 L 363.51118760757316 863.8554216867469 L 366.815834767642 880.3786574870912 L 370.12048192771084 893.5972461273666 L 370.12048192771084 916.7297762478485 L 370.12048192771084 929.9483648881239 L 370.12048192771084 946.4716006884681 L 370.12048192771084 953.0808950086058 L 370.12048192771084 959.6901893287435 L 366.815834767642 966.2994836488812 L 356.9018932874354 976.2134251290878 L 337.0740103270224 979.5180722891566 L 304.0275387263339 986.1273666092943 L 267.6764199655766 992.736660929432 L 224.71600688468158 992.736660929432 L 181.75559380378658 992.736660929432 L 158.62306368330465 992.736660929432 L 145.40447504302927 989.4320137693632 L 125.57659208261617 966.2994836488812 L 118.96729776247848 936.5576592082616 L 112.35800344234079 906.815834767642 L 109.05335628227195 880.3786574870912 L 109.05335628227195 847.3321858864027 L 109.05335628227195 824.1996557659209 L 109.05335628227195 801.0671256454389 L 118.96729776247848 774.6299483648882 L 128.881239242685 761.4113597246127 L 145.40447504302927 744.8881239242685 L 158.62306368330465 738.2788296041308 L 178.4509466437177 731.6695352839931 L 224.71600688468158 731.6695352839931 L 277.5903614457831 731.6695352839931 L 350.29259896729775 731.6695352839931 L 439.51807228915663 731.6695352839931 L 528.7435456110155 731.6695352839931 L 627.8829604130809 728.3648881239243 L 710.499139414802 715.1462994836488 L 783.2013769363167 692.013769363167 L 839.3803786574871 672.1858864027539 L 875.7314974182444 655.6626506024096 L 902.1686746987951 635.8347676419966 L 931.9104991394148 616.0068846815834 L 951.7383820998278 602.7882960413081 L 955.0430292598967 599.4836488812392" stroke="#000000" stroke-width="28" fill="none" stroke-linecap="round" stroke-linejoin="round" transform="rotate(216, 960, 540)"/><path d="M 234.62994836488812 463.9931153184165 L 244.54388984509467 467.29776247848537 L 254.45783132530119 487.12564543889846 L 264.37177280550776 506.9535283993115 L 280.89500860585196 533.3907056798623 L 300.72289156626505 559.827882960413 L 310.63683304647157 573.0464716006885 L 313.94148020654046 582.960413080895 L 313.94148020654046 596.1790017211704 L 317.2461273666093 609.3975903614457 L 320.55077452667814 625.92082616179 L 323.855421686747 655.6626506024096 L 327.1600688468158 678.7951807228916 L 333.7693631669535 705.2323580034423 L 337.0740103270224 731.6695352839931 L 346.9879518072289 751.4974182444062 L 346.9879518072289 764.7160068846815 L 350.29259896729775 771.3253012048193 L 350.29259896729775 784.5438898450947 L 353.5972461273666 797.76247848537 L 353.5972461273666 807.6764199655765 L 356.9018932874354 820.895008605852 L 360.20654044750427 834.1135972461274 L 360.20654044750427 844.0275387263339 L 363.51118760757316 863.8554216867469 L 366.815834767642 880.3786574870912 L 370.12048192771084 893.5972461273666 L 370.12048192771084 916.7297762478485 L 370.12048192771084 929.9483648881239 L 370.12048192771084 946.4716006884681 L 370.12048192771084 953.0808950086058 L 370.12048192771084 959.6901893287435 L 366.815834767642 966.2994836488812 L 356.9018932874354 976.2134251290878 L 337.0740103270224 979.5180722891566 L 304.0275387263339 986.1273666092943 L 267.6764199655766 992.736660929432 L 224.71600688468158 992.736660929432 L 181.75559380378658 992.736660929432 L 158.62306368330465 992.736660929432 L 145.40447504302927 989.4320137693632 L 125.57659208261617 966.2994836488812 L 118.96729776247848 936.5576592082616 L 112.35800344234079 906.815834767642 L 109.05335628227195 880.3786574870912 L 109.05335628227195 847.3321858864027 L 109.05335628227195 824.1996557659209 L 109.05335628227195 801.0671256454389 L 118.96729776247848 774.6299483648882 L 128.881239242685 761.4113597246127 L 145.40447504302927 744.8881239242685 L 158.62306368330465 738.2788296041308 L 178.4509466437177 731.6695352839931 L 224.71600688468158 731.6695352839931 L 277.5903614457831 731.6695352839931 L 350.29259896729775 731.6695352839931 L 439.51807228915663 731.6695352839931 L 528.7435456110155 731.6695352839931 L 627.8829604130809 728.3648881239243 L 710.499139414802 715.1462994836488 L 783.2013769363167 692.013769363167 L 839.3803786574871 672.1858864027539 L 875.7314974182444 655.6626506024096 L 902.1686746987951 635.8347676419966 L 931.9104991394148 616.0068846815834 L 951.7383820998278 602.7882960413081 L 955.0430292598967 599.4836488812392" stroke="#000000" stroke-width="28" fill="none" stroke-linecap="round" stroke-linejoin="round" transform="rotate(288, 960, 540)"/><path d="M 313.94148020654046 457.3838209982788 L 313.94148020654046 467.29776247848537 L 327.1600688468158 503.64888123924266 L 356.9018932874354 556.5232358003442 L 406.47160068846813 625.92082616179 L 446.1273666092943 675.4905335628227 L 495.697074010327 718.4509466437177 L 548.5714285714286 758.1067125645438 L 624.5783132530121 807.6764199655765 L 637.7969018932874 814.2857142857142 L 644.4061962134251 820.895008605852 L 647.710843373494 820.895008605852 L 651.0154905335628 824.1996557659209 L 651.0154905335628 827.5043029259897 L 654.3201376936316 827.5043029259897 L 657.6247848537005 834.1135972461274 L 660.9294320137693 837.4182444061962 L 664.2340791738382 837.4182444061962 L 674.1480206540448 837.4182444061962 L 680.7573149741825 830.8089500860585 L 684.0619621342513 827.5043029259897 L 690.671256454389 827.5043029259897 L 703.8898450946643 827.5043029259897 L 717.1084337349397 827.5043029259897 L 727.0223752151463 827.5043029259897 L 743.5456110154905 827.5043029259897 L 750.1549053356282 827.5043029259897 L 760.0688468158347 827.5043029259897 L 769.9827882960412 827.5043029259897 L 783.2013769363167 827.5043029259897 L 789.8106712564544 827.5043029259897 L 799.7246127366609 827.5043029259897 L 806.3339070567986 827.5043029259897 L 812.9432013769363 827.5043029259897 L 819.5524956970739 827.5043029259897 L 826.1617900172117 824.1996557659209 L 832.7710843373494 824.1996557659209 L 849.2943201376936 820.895008605852 L 852.5989672977624 820.895008605852 L 862.512908777969 814.2857142857142 L 872.4268502581756 810.9810671256454 L 882.3407917383821 810.9810671256454 L 888.9500860585198 807.6764199655765 L 892.2547332185886 807.6764199655765 L 895.5593803786575 807.6764199655765 L 902.1686746987951 804.3717728055077 L 905.473321858864 804.3717728055077 L 912.0826161790017 801.0671256454389 L 915.3872633390705 801.0671256454389 L 918.6919104991393 801.0671256454389 L 921.9965576592083 801.0671256454389 L 931.9104991394148 801.0671256454389 L 935.2151462994836 801.0671256454389 L 938.5197934595525 801.0671256454389 L 945.1290877796902 801.0671256454389 L 951.7383820998278 801.0671256454389 L 961.6523235800344 801.0671256454389 L 964.9569707401032 801.0671256454389 L 971.566265060241 801.0671256454389 L 974.8709122203098 801.0671256454389 L 978.1755593803787 801.0671256454389 L 981.4802065404475 801.0671256454389 L 984.7848537005164 801.0671256454389 L 994.6987951807229 801.0671256454389 L 1001.3080895008605 801.0671256454389 L 1014.5266781411359 801.0671256454389 L 1021.1359724612737 801.0671256454389 L 1024.4406196213424 801.0671256454389 L 1034.354561101549 801.0671256454389 L 1040.9638554216867 801.0671256454389 L 1050.8777969018934 801.0671256454389 L 1054.182444061962 801.0671256454389 L 1060.7917383820998 801.0671256454389 L 1064.0963855421687 801.0671256454389 L 1067.4010327022374 797.76247848537 L 1070.7056798623064 794.4578313253012 L 1074.0103270223751 794.4578313253012 L 1077.314974182444 791.1531841652323 L 1087.2289156626505 784.5438898450947 L 1087.2289156626505 781.2392426850258 L 1097.142857142857 774.6299483648882 L 1100.447504302926 768.0206540447504 L 1103.7521514629948 761.4113597246127 L 1107.0567986230637 758.1067125645438 L 1110.3614457831325 754.802065404475 L 1113.6660929432014 748.1927710843373 L 1116.9707401032701 738.2788296041308 L 1120.275387263339 731.6695352839931 L 1130.1893287435455 718.4509466437177 L 1136.7986230636832 701.9277108433735 L 1143.4079173838209 685.4044750430293 L 1153.3218588640275 668.881239242685 L 1166.5404475043028 645.7487091222031 L 1186.3683304647159 612.7022375215146 L 1206.1962134251291 586.2650602409639 L 1222.7194492254732 566.4371772805507 L 1242.5473321858863 553.2185886402754 L 1255.7659208261618 543.3046471600688 L 1272.289156626506 533.3907056798623 L 1292.117039586919 520.1721170395869 L 1315.249569707401 503.64888123924266 L 1331.7728055077453 490.4302925989673 L 1344.9913941480206 480.5163511187607 L 1358.209982788296 467.29776247848537 L 1368.1239242685026 457.3838209982788 L 1397.8657487091223 440.8605851979346 L 1414.3889845094664 430.946643717728 L 1427.6075731497417 417.72805507745267 L 1444.130808950086 407.8141135972461 L 1450.7401032702237 401.2048192771084 L 1460.6540447504303 394.59552495697073 L 1467.263339070568 387.98623063683306 L 1473.8726333907057 381.3769363166953 L 1480.4819277108434 378.0722891566265 L 1490.3958691910498 368.15834767641996 L 1493.7005163511187 361.5490533562823 L 1500.3098106712564 354.93975903614455 L 1506.919104991394 345.02581755593803 L 1510.223752151463 345.02581755593803 L 1510.223752151463 341.7211703958692" stroke="#000000" stroke-width="28" fill="none" stroke-linecap="round" stroke-linejoin="round"/><path d="M 313.94148020654046 457.3838209982788 L 313.94148020654046 467.29776247848537 L 327.1600688468158 503.64888123924266 L 356.9018932874354 556.5232358003442 L 406.47160068846813 625.92082616179 L 446.1273666092943 675.4905335628227 L 495.697074010327 718.4509466437177 L 548.5714285714286 758.1067125645438 L 624.5783132530121 807.6764199655765 L 637.7969018932874 814.2857142857142 L 644.4061962134251 820.895008605852 L 647.710843373494 820.895008605852 L 651.0154905335628 824.1996557659209 L 651.0154905335628 827.5043029259897 L 654.3201376936316 827.5043029259897 L 657.6247848537005 834.1135972461274 L 660.9294320137693 837.4182444061962 L 664.2340791738382 837.4182444061962 L 674.1480206540448 837.4182444061962 L 680.7573149741825 830.8089500860585 L 684.0619621342513 827.5043029259897 L 690.671256454389 827.5043029259897 L 703.8898450946643 827.5043029259897 L 717.1084337349397 827.5043029259897 L 727.0223752151463 827.5043029259897 L 743.5456110154905 827.5043029259897 L 750.1549053356282 827.5043029259897 L 760.0688468158347 827.5043029259897 L 769.9827882960412 827.5043029259897 L 783.2013769363167 827.5043029259897 L 789.8106712564544 827.5043029259897 L 799.7246127366609 827.5043029259897 L 806.3339070567986 827.5043029259897 L 812.9432013769363 827.5043029259897 L 819.5524956970739 827.5043029259897 L 826.1617900172117 824.1996557659209 L 832.7710843373494 824.1996557659209 L 849.2943201376936 820.895008605852 L 852.5989672977624 820.895008605852 L 862.512908777969 814.2857142857142 L 872.4268502581756 810.9810671256454 L 882.3407917383821 810.9810671256454 L 888.9500860585198 807.6764199655765 L 892.2547332185886 807.6764199655765 L 895.5593803786575 807.6764199655765 L 902.1686746987951 804.3717728055077 L 905.473321858864 804.3717728055077 L 912.0826161790017 801.0671256454389 L 915.3872633390705 801.0671256454389 L 918.6919104991393 801.0671256454389 L 921.9965576592083 801.0671256454389 L 931.9104991394148 801.0671256454389 L 935.2151462994836 801.0671256454389 L 938.5197934595525 801.0671256454389 L 945.1290877796902 801.0671256454389 L 951.7383820998278 801.0671256454389 L 961.6523235800344 801.0671256454389 L 964.9569707401032 801.0671256454389 L 971.566265060241 801.0671256454389 L 974.8709122203098 801.0671256454389 L 978.1755593803787 801.0671256454389 L 981.4802065404475 801.0671256454389 L 984.7848537005164 801.0671256454389 L 994.6987951807229 801.0671256454389 L 1001.3080895008605 801.0671256454389 L 1014.5266781411359 801.0671256454389 L 1021.1359724612737 801.0671256454389 L 1024.4406196213424 801.0671256454389 L 1034.354561101549 801.0671256454389 L 1040.9638554216867 801.0671256454389 L 1050.8777969018934 801.0671256454389 L 1054.182444061962 801.0671256454389 L 1060.7917383820998 801.0671256454389 L 1064.0963855421687 801.0671256454389 L 1067.4010327022374 797.76247848537 L 1070.7056798623064 794.4578313253012 L 1074.0103270223751 794.4578313253012 L 1077.314974182444 791.1531841652323 L 1087.2289156626505 784.5438898450947 L 1087.2289156626505 781.2392426850258 L 1097.142857142857 774.6299483648882 L 1100.447504302926 768.0206540447504 L 1103.7521514629948 761.4113597246127 L 1107.0567986230637 758.1067125645438 L 1110.3614457831325 754.802065404475 L 1113.6660929432014 748.1927710843373 L 1116.9707401032701 738.2788296041308 L 1120.275387263339 731.6695352839931 L 1130.1893287435455 718.4509466437177 L 1136.7986230636832 701.9277108433735 L 1143.4079173838209 685.4044750430293 L 1153.3218588640275 668.881239242685 L 1166.5404475043028 645.7487091222031 L 1186.3683304647159 612.7022375215146 L 1206.1962134251291 586.2650602409639 L 1222.7194492254732 566.4371772805507 L 1242.5473321858863 553.2185886402754 L 1255.7659208261618 543.3046471600688 L 1272.289156626506 533.3907056798623 L 1292.117039586919 520.1721170395869 L 1315.249569707401 503.64888123924266 L 1331.7728055077453 490.4302925989673 L 1344.9913941480206 480.5163511187607 L 1358.209982788296 467.29776247848537 L 1368.1239242685026 457.3838209982788 L 1397.8657487091223 440.8605851979346 L 1414.3889845094664 430.946643717728 L 1427.6075731497417 417.72805507745267 L 1444.130808950086 407.8141135972461 L 1450.7401032702237 401.2048192771084 L 1460.6540447504303 394.59552495697073 L 1467.263339070568 387.98623063683306 L 1473.8726333907057 381.3769363166953 L 1480.4819277108434 378.0722891566265 L 1490.3958691910498 368.15834767641996 L 1493.7005163511187 361.5490533562823 L 1500.3098106712564 354.93975903614455 L 1506.919104991394 345.02581755593803 L 1510.223752151463 345.02581755593803 L 1510.223752151463 341.7211703958692" stroke="#000000" stroke-width="28" fill="none" stroke-linecap="round" stroke-linejoin="round" transform="rotate(72, 960, 540)"/><path d="M 313.94148020654046 457.3838209982788 L 313.94148020654046 467.29776247848537 L 327.1600688468158 503.64888123924266 L 356.9018932874354 556.5232358003442 L 406.47160068846813 625.92082616179 L 446.1273666092943 675.4905335628227 L 495.697074010327 718.4509466437177 L 548.5714285714286 758.1067125645438 L 624.5783132530121 807.6764199655765 L 637.7969018932874 814.2857142857142 L 644.4061962134251 820.895008605852 L 647.710843373494 820.895008605852 L 651.0154905335628 824.1996557659209 L 651.0154905335628 827.5043029259897 L 654.3201376936316 827.5043029259897 L 657.6247848537005 834.1135972461274 L 660.9294320137693 837.4182444061962 L 664.2340791738382 837.4182444061962 L 674.1480206540448 837.4182444061962 L 680.7573149741825 830.8089500860585 L 684.0619621342513 827.5043029259897 L 690.671256454389 827.5043029259897 L 703.8898450946643 827.5043029259897 L 717.1084337349397 827.5043029259897 L 727.0223752151463 827.5043029259897 L 743.5456110154905 827.5043029259897 L 750.1549053356282 827.5043029259897 L 760.0688468158347 827.5043029259897 L 769.9827882960412 827.5043029259897 L 783.2013769363167 827.5043029259897 L 789.8106712564544 827.5043029259897 L 799.7246127366609 827.5043029259897 L 806.3339070567986 827.5043029259897 L 812.9432013769363 827.5043029259897 L 819.5524956970739 827.5043029259897 L 826.1617900172117 824.1996557659209 L 832.7710843373494 824.1996557659209 L 849.2943201376936 820.895008605852 L 852.5989672977624 820.895008605852 L 862.512908777969 814.2857142857142 L 872.4268502581756 810.9810671256454 L 882.3407917383821 810.9810671256454 L 888.9500860585198 807.6764199655765 L 892.2547332185886 807.6764199655765 L 895.5593803786575 807.6764199655765 L 902.1686746987951 804.3717728055077 L 905.473321858864 804.3717728055077 L 912.0826161790017 801.0671256454389 L 915.3872633390705 801.0671256454389 L 918.6919104991393 801.0671256454389 L 921.9965576592083 801.0671256454389 L 931.9104991394148 801.0671256454389 L 935.2151462994836 801.0671256454389 L 938.5197934595525 801.0671256454389 L 945.1290877796902 801.0671256454389 L 951.7383820998278 801.0671256454389 L 961.6523235800344 801.0671256454389 L 964.9569707401032 801.0671256454389 L 971.566265060241 801.0671256454389 L 974.8709122203098 801.0671256454389 L 978.1755593803787 801.0671256454389 L 981.4802065404475 801.0671256454389 L 984.7848537005164 801.0671256454389 L 994.6987951807229 801.0671256454389 L 1001.3080895008605 801.0671256454389 L 1014.5266781411359 801.0671256454389 L 1021.1359724612737 801.0671256454389 L 1024.4406196213424 801.0671256454389 L 1034.354561101549 801.0671256454389 L 1040.9638554216867 801.0671256454389 L 1050.8777969018934 801.0671256454389 L 1054.182444061962 801.0671256454389 L 1060.7917383820998 801.0671256454389 L 1064.0963855421687 801.0671256454389 L 1067.4010327022374 797.76247848537 L 1070.7056798623064 794.4578313253012 L 1074.0103270223751 794.4578313253012 L 1077.314974182444 791.1531841652323 L 1087.2289156626505 784.5438898450947 L 1087.2289156626505 781.2392426850258 L 1097.142857142857 774.6299483648882 L 1100.447504302926 768.0206540447504 L 1103.7521514629948 761.4113597246127 L 1107.0567986230637 758.1067125645438 L 1110.3614457831325 754.802065404475 L 1113.6660929432014 748.1927710843373 L 1116.9707401032701 738.2788296041308 L 1120.275387263339 731.6695352839931 L 1130.1893287435455 718.4509466437177 L 1136.7986230636832 701.9277108433735 L 1143.4079173838209 685.4044750430293 L 1153.3218588640275 668.881239242685 L 1166.5404475043028 645.7487091222031 L 1186.3683304647159 612.7022375215146 L 1206.1962134251291 586.2650602409639 L 1222.7194492254732 566.4371772805507 L 1242.5473321858863 553.2185886402754 L 1255.7659208261618 543.3046471600688 L 1272.289156626506 533.3907056798623 L 1292.117039586919 520.1721170395869 L 1315.249569707401 503.64888123924266 L 1331.7728055077453 490.4302925989673 L 1344.9913941480206 480.5163511187607 L 1358.209982788296 467.29776247848537 L 1368.1239242685026 457.3838209982788 L 1397.8657487091223 440.8605851979346 L 1414.3889845094664 430.946643717728 L 1427.6075731497417 417.72805507745267 L 1444.130808950086 407.8141135972461 L 1450.7401032702237 401.2048192771084 L 1460.6540447504303 394.59552495697073 L 1467.263339070568 387.98623063683306 L 1473.8726333907057 381.3769363166953 L 1480.4819277108434 378.0722891566265 L 1490.3958691910498 368.15834767641996 L 1493.7005163511187 361.5490533562823 L 1500.3098106712564 354.93975903614455 L 1506.919104991394 345.02581755593803 L 1510.223752151463 345.02581755593803 L 1510.223752151463 341.7211703958692" stroke="#000000" stroke-width="28" fill="none" stroke-linecap="round" stroke-linejoin="round" transform="rotate(144, 960, 540)"/><path d="M 313.94148020654046 457.3838209982788 L 313.94148020654046 467.29776247848537 L 327.1600688468158 503.64888123924266 L 356.9018932874354 556.5232358003442 L 406.47160068846813 625.92082616179 L 446.1273666092943 675.4905335628227 L 495.697074010327 718.4509466437177 L 548.5714285714286 758.1067125645438 L 624.5783132530121 807.6764199655765 L 637.7969018932874 814.2857142857142 L 644.4061962134251 820.895008605852 L 647.710843373494 820.895008605852 L 651.0154905335628 824.1996557659209 L 651.0154905335628 827.5043029259897 L 654.3201376936316 827.5043029259897 L 657.6247848537005 834.1135972461274 L 660.9294320137693 837.4182444061962 L 664.2340791738382 837.4182444061962 L 674.1480206540448 837.4182444061962 L 680.7573149741825 830.8089500860585 L 684.0619621342513 827.5043029259897 L 690.671256454389 827.5043029259897 L 703.8898450946643 827.5043029259897 L 717.1084337349397 827.5043029259897 L 727.0223752151463 827.5043029259897 L 743.5456110154905 827.5043029259897 L 750.1549053356282 827.5043029259897 L 760.0688468158347 827.5043029259897 L 769.9827882960412 827.5043029259897 L 783.2013769363167 827.5043029259897 L 789.8106712564544 827.5043029259897 L 799.7246127366609 827.5043029259897 L 806.3339070567986 827.5043029259897 L 812.9432013769363 827.5043029259897 L 819.5524956970739 827.5043029259897 L 826.1617900172117 824.1996557659209 L 832.7710843373494 824.1996557659209 L 849.2943201376936 820.895008605852 L 852.5989672977624 820.895008605852 L 862.512908777969 814.2857142857142 L 872.4268502581756 810.9810671256454 L 882.3407917383821 810.9810671256454 L 888.9500860585198 807.6764199655765 L 892.2547332185886 807.6764199655765 L 895.5593803786575 807.6764199655765 L 902.1686746987951 804.3717728055077 L 905.473321858864 804.3717728055077 L 912.0826161790017 801.0671256454389 L 915.3872633390705 801.0671256454389 L 918.6919104991393 801.0671256454389 L 921.9965576592083 801.0671256454389 L 931.9104991394148 801.0671256454389 L 935.2151462994836 801.0671256454389 L 938.5197934595525 801.0671256454389 L 945.1290877796902 801.0671256454389 L 951.7383820998278 801.0671256454389 L 961.6523235800344 801.0671256454389 L 964.9569707401032 801.0671256454389 L 971.566265060241 801.0671256454389 L 974.8709122203098 801.0671256454389 L 978.1755593803787 801.0671256454389 L 981.4802065404475 801.0671256454389 L 984.7848537005164 801.0671256454389 L 994.6987951807229 801.0671256454389 L 1001.3080895008605 801.0671256454389 L 1014.5266781411359 801.0671256454389 L 1021.1359724612737 801.0671256454389 L 1024.4406196213424 801.0671256454389 L 1034.354561101549 801.0671256454389 L 1040.9638554216867 801.0671256454389 L 1050.8777969018934 801.0671256454389 L 1054.182444061962 801.0671256454389 L 1060.7917383820998 801.0671256454389 L 1064.0963855421687 801.0671256454389 L 1067.4010327022374 797.76247848537 L 1070.7056798623064 794.4578313253012 L 1074.0103270223751 794.4578313253012 L 1077.314974182444 791.1531841652323 L 1087.2289156626505 784.5438898450947 L 1087.2289156626505 781.2392426850258 L 1097.142857142857 774.6299483648882 L 1100.447504302926 768.0206540447504 L 1103.7521514629948 761.4113597246127 L 1107.0567986230637 758.1067125645438 L 1110.3614457831325 754.802065404475 L 1113.6660929432014 748.1927710843373 L 1116.9707401032701 738.2788296041308 L 1120.275387263339 731.6695352839931 L 1130.1893287435455 718.4509466437177 L 1136.7986230636832 701.9277108433735 L 1143.4079173838209 685.4044750430293 L 1153.3218588640275 668.881239242685 L 1166.5404475043028 645.7487091222031 L 1186.3683304647159 612.7022375215146 L 1206.1962134251291 586.2650602409639 L 1222.7194492254732 566.4371772805507 L 1242.5473321858863 553.2185886402754 L 1255.7659208261618 543.3046471600688 L 1272.289156626506 533.3907056798623 L 1292.117039586919 520.1721170395869 L 1315.249569707401 503.64888123924266 L 1331.7728055077453 490.4302925989673 L 1344.9913941480206 480.5163511187607 L 1358.209982788296 467.29776247848537 L 1368.1239242685026 457.3838209982788 L 1397.8657487091223 440.8605851979346 L 1414.3889845094664 430.946643717728 L 1427.6075731497417 417.72805507745267 L 1444.130808950086 407.8141135972461 L 1450.7401032702237 401.2048192771084 L 1460.6540447504303 394.59552495697073 L 1467.263339070568 387.98623063683306 L 1473.8726333907057 381.3769363166953 L 1480.4819277108434 378.0722891566265 L 1490.3958691910498 368.15834767641996 L 1493.7005163511187 361.5490533562823 L 1500.3098106712564 354.93975903614455 L 1506.919104991394 345.02581755593803 L 1510.223752151463 345.02581755593803 L 1510.223752151463 341.7211703958692" stroke="#000000" stroke-width="28" fill="none" stroke-linecap="round" stroke-linejoin="round" transform="rotate(216, 960, 540)"/><path d="M 313.94148020654046 457.3838209982788 L 313.94148020654046 467.29776247848537 L 327.1600688468158 503.64888123924266 L 356.9018932874354 556.5232358003442 L 406.47160068846813 625.92082616179 L 446.1273666092943 675.4905335628227 L 495.697074010327 718.4509466437177 L 548.5714285714286 758.1067125645438 L 624.5783132530121 807.6764199655765 L 637.7969018932874 814.2857142857142 L 644.4061962134251 820.895008605852 L 647.710843373494 820.895008605852 L 651.0154905335628 824.1996557659209 L 651.0154905335628 827.5043029259897 L 654.3201376936316 827.5043029259897 L 657.6247848537005 834.1135972461274 L 660.9294320137693 837.4182444061962 L 664.2340791738382 837.4182444061962 L 674.1480206540448 837.4182444061962 L 680.7573149741825 830.8089500860585 L 684.0619621342513 827.5043029259897 L 690.671256454389 827.5043029259897 L 703.8898450946643 827.5043029259897 L 717.1084337349397 827.5043029259897 L 727.0223752151463 827.5043029259897 L 743.5456110154905 827.5043029259897 L 750.1549053356282 827.5043029259897 L 760.0688468158347 827.5043029259897 L 769.9827882960412 827.5043029259897 L 783.2013769363167 827.5043029259897 L 789.8106712564544 827.5043029259897 L 799.7246127366609 827.5043029259897 L 806.3339070567986 827.5043029259897 L 812.9432013769363 827.5043029259897 L 819.5524956970739 827.5043029259897 L 826.1617900172117 824.1996557659209 L 832.7710843373494 824.1996557659209 L 849.2943201376936 820.895008605852 L 852.5989672977624 820.895008605852 L 862.512908777969 814.2857142857142 L 872.4268502581756 810.9810671256454 L 882.3407917383821 810.9810671256454 L 888.9500860585198 807.6764199655765 L 892.2547332185886 807.6764199655765 L 895.5593803786575 807.6764199655765 L 902.1686746987951 804.3717728055077 L 905.473321858864 804.3717728055077 L 912.0826161790017 801.0671256454389 L 915.3872633390705 801.0671256454389 L 918.6919104991393 801.0671256454389 L 921.9965576592083 801.0671256454389 L 931.9104991394148 801.0671256454389 L 935.2151462994836 801.0671256454389 L 938.5197934595525 801.0671256454389 L 945.1290877796902 801.0671256454389 L 951.7383820998278 801.0671256454389 L 961.6523235800344 801.0671256454389 L 964.9569707401032 801.0671256454389 L 971.566265060241 801.0671256454389 L 974.8709122203098 801.0671256454389 L 978.1755593803787 801.0671256454389 L 981.4802065404475 801.0671256454389 L 984.7848537005164 801.0671256454389 L 994.6987951807229 801.0671256454389 L 1001.3080895008605 801.0671256454389 L 1014.5266781411359 801.0671256454389 L 1021.1359724612737 801.0671256454389 L 1024.4406196213424 801.0671256454389 L 1034.354561101549 801.0671256454389 L 1040.9638554216867 801.0671256454389 L 1050.8777969018934 801.0671256454389 L 1054.182444061962 801.0671256454389 L 1060.7917383820998 801.0671256454389 L 1064.0963855421687 801.0671256454389 L 1067.4010327022374 797.76247848537 L 1070.7056798623064 794.4578313253012 L 1074.0103270223751 794.4578313253012 L 1077.314974182444 791.1531841652323 L 1087.2289156626505 784.5438898450947 L 1087.2289156626505 781.2392426850258 L 1097.142857142857 774.6299483648882 L 1100.447504302926 768.0206540447504 L 1103.7521514629948 761.4113597246127 L 1107.0567986230637 758.1067125645438 L 1110.3614457831325 754.802065404475 L 1113.6660929432014 748.1927710843373 L 1116.9707401032701 738.2788296041308 L 1120.275387263339 731.6695352839931 L 1130.1893287435455 718.4509466437177 L 1136.7986230636832 701.9277108433735 L 1143.4079173838209 685.4044750430293 L 1153.3218588640275 668.881239242685 L 1166.5404475043028 645.7487091222031 L 1186.3683304647159 612.7022375215146 L 1206.1962134251291 586.2650602409639 L 1222.7194492254732 566.4371772805507 L 1242.5473321858863 553.2185886402754 L 1255.7659208261618 543.3046471600688 L 1272.289156626506 533.3907056798623 L 1292.117039586919 520.1721170395869 L 1315.249569707401 503.64888123924266 L 1331.7728055077453 490.4302925989673 L 1344.9913941480206 480.5163511187607 L 1358.209982788296 467.29776247848537 L 1368.1239242685026 457.3838209982788 L 1397.8657487091223 440.8605851979346 L 1414.3889845094664 430.946643717728 L 1427.6075731497417 417.72805507745267 L 1444.130808950086 407.8141135972461 L 1450.7401032702237 401.2048192771084 L 1460.6540447504303 394.59552495697073 L 1467.263339070568 387.98623063683306 L 1473.8726333907057 381.3769363166953 L 1480.4819277108434 378.0722891566265 L 1490.3958691910498 368.15834767641996 L 1493.7005163511187 361.5490533562823 L 1500.3098106712564 354.93975903614455 L 1506.919104991394 345.02581755593803 L 1510.223752151463 345.02581755593803 L 1510.223752151463 341.7211703958692" stroke="#000000" stroke-width="28" fill="none" stroke-linecap="round" stroke-linejoin="round" transform="rotate(288, 960, 540)"/></g>
                    <g id="overlay-layer" style="pointer-events: none;"/>
                    <g id="guide-layer" style="pointer-events: none;"><line x1="0" y1="540" x2="1920" y2="540" stroke="rgba(0,0,0,0.1)" stroke-width="1" stroke-dasharray="10,10"/><line x1="960" y1="0" x2="960" y2="1080" stroke="rgba(0,0,0,0.1)" stroke-width="1" stroke-dasharray="10,10"/><circle cx="960" cy="540" r="5" fill="rgba(0,0,0,0.2)"/></g>
                </svg>